<svg xmlns="http://www.w3.org/2000/svg" width="48.127" height="60.441" viewBox="0 0 48.127 60.441">
  <g id="Group_4902" data-name="Group 4902" transform="translate(-167.924 -353.979)">
    <g id="Group_4850" data-name="Group 4850" transform="translate(175.652 378.183)">
      <path id="Polygon_2" data-name="Polygon 2" d="M23.008,15.866a3.087,3.087,0,0,0-1.552.414,3.008,3.008,0,0,0-1.17,1.243L9.241,38.888A3.017,3.017,0,0,0,8.9,40.446a3.1,3.1,0,0,0,1.523,2.5,3.017,3.017,0,0,0,1.542.411H34.052a3.017,3.017,0,0,0,1.542-.411,3.1,3.1,0,0,0,1.523-2.5,3.017,3.017,0,0,0-.343-1.558L25.73,17.523a3.008,3.008,0,0,0-1.17-1.243,3.087,3.087,0,0,0-1.552-.414m0-.557a3.582,3.582,0,0,1,3.217,1.958L37.269,38.632a3.621,3.621,0,0,1-3.217,5.285H11.964a3.621,3.621,0,0,1-3.217-5.285L19.791,17.267A3.582,3.582,0,0,1,23.008,15.309Z" transform="translate(-8.337 -15.308)" fill="#d9d9d9" stroke="rgba(0,0,0,0)" stroke-width="1"/>
      <path id="Path_2477" data-name="Path 2477" d="M6.629-33.884H5.184v-9.541H6.629ZM5.063-46.011a.96.96,0,0,1,.244-.727.852.852,0,0,1,.609-.231.851.851,0,0,1,.6.235.942.942,0,0,1,.252.723.957.957,0,0,1-.252.727.843.843,0,0,1-.6.239.835.835,0,0,1-.609-.239A.978.978,0,0,1,5.063-46.011Z" transform="translate(8.791 56.641)" fill="#d9d9d9"/>
      <path id="Polygon_2-2" data-name="Polygon 2" d="M23.008,15.866a3.087,3.087,0,0,0-1.552.414,3.008,3.008,0,0,0-1.17,1.243L9.241,38.888A3.017,3.017,0,0,0,8.9,40.446a3.1,3.1,0,0,0,1.523,2.5,3.017,3.017,0,0,0,1.542.411H34.052a3.017,3.017,0,0,0,1.542-.411,3.1,3.1,0,0,0,1.523-2.5,3.017,3.017,0,0,0-.343-1.558L25.73,17.523a3.008,3.008,0,0,0-1.17-1.243,3.087,3.087,0,0,0-1.552-.414m0-.557a3.582,3.582,0,0,1,3.217,1.958L37.269,38.632a3.621,3.621,0,0,1-3.217,5.285H11.964a3.621,3.621,0,0,1-3.217-5.285L19.791,17.267A3.582,3.582,0,0,1,23.008,15.309Z" transform="translate(-5.551 -12.646)" stroke="#000" stroke-width="0.5"/>
      <path id="Path_2476" data-name="Path 2476" d="M6.629-33.884H5.184v-9.541H6.629ZM5.063-46.011a.96.96,0,0,1,.244-.727.852.852,0,0,1,.609-.231.851.851,0,0,1,.6.235.942.942,0,0,1,.252.723.957.957,0,0,1-.252.727.843.843,0,0,1-.6.239.835.835,0,0,1-.609-.239A.978.978,0,0,1,5.063-46.011Z" transform="translate(11.575 59.305)" stroke="rgba(0,0,0,0)" stroke-width="1"/>
    </g>
    <g id="Group_4900" data-name="Group 4900" transform="translate(167.924 354.479)">
      <g id="Path_8" data-name="Path 8" transform="translate(0 18.833)" fill="none">
        <path d="M0,2H45.136L41.361,39.613H3.814Z" stroke="none"/>
        <path d="M 1.106533050537109 3 L 4.71783447265625 38.61309814453125 L 40.45598220825195 38.61309814453125 L 44.03033065795898 3 L 1.106533050537109 3 M -3.814697265625e-06 2 L 45.13571929931641 2 L 41.36063766479492 39.61309814453125 L 3.814105987548828 39.61309814453125 L -3.814697265625e-06 2 Z" stroke="none" fill="#d9d9d9"/>
      </g>
      <path id="Path_10" data-name="Path 10" d="M1391.444-4.407V-21.073c0-5.558,5.033-13.466,13.3-13.466s13.266,7.069,13.266,13.466V-4.407" transform="translate(-1382.251 34.539)" fill="none" stroke="#d9d9d9" stroke-width="1"/>
    </g>
    <g id="Group_12" data-name="Group 12" transform="translate(170.915 355.974)">
      <g id="Path_8-2" data-name="Path 8" transform="translate(0 18.833)" fill="none">
        <path d="M0,2H45.136L41.361,39.613H3.814Z" stroke="none"/>
        <path d="M 1.106533050537109 3 L 4.71783447265625 38.61309814453125 L 40.45598220825195 38.61309814453125 L 44.03033065795898 3 L 1.106533050537109 3 M -3.814697265625e-06 2 L 45.13571929931641 2 L 41.36063766479492 39.61309814453125 L 3.814105987548828 39.61309814453125 L -3.814697265625e-06 2 Z" stroke="none" fill="#000"/>
      </g>
      <path id="Path_10-2" data-name="Path 10" d="M1391.444-4.407V-21.073c0-5.558,5.033-13.466,13.3-13.466s13.266,7.069,13.266,13.466V-4.407" transform="translate(-1382.251 34.539)" fill="none" stroke="#000" stroke-width="1"/>
    </g>
  </g>
</svg>
